<svg width="437" height="798" viewBox="0 0 437 798" fill="none" xmlns="http://www.w3.org/2000/svg">
<path d="M5.77998 1.42H4.35998V795.78H5.77998V1.42Z" fill="white"/>
<path d="M432.35 1.42H430.93V795.78H432.35V1.42Z" fill="white"/>
<path d="M432.35 0H4.35998V1.42H432.35V0Z" fill="white"/>
<path d="M432.35 795.79H4.35998V797.21H432.35V795.79Z" fill="white"/>
<path d="M436.56 397.9H0.149975V399.31H436.56V397.9Z" fill="white"/>
<path d="M218.35 348.96C245.7 348.96 267.95 371.23 267.95 398.61C267.95 425.99 245.7 448.26 218.35 448.26C191 448.26 168.75 425.99 168.75 398.61C168.75 371.23 191 348.96 218.35 348.96ZM218.35 347.54C190.17 347.54 167.33 370.4 167.33 398.61C167.33 426.82 190.17 449.68 218.35 449.68C246.53 449.68 269.37 426.82 269.37 398.61C269.37 370.4 246.53 347.54 218.35 347.54Z" fill="white"/>
<path d="M32.74 710.61H31.32V795.79H32.74V710.61Z" fill="white"/>
<path d="M405.42 710.74H404V795.78H405.42V710.74Z" fill="white"/>
<path d="M405.42 710.75L404.01 710.85H404C401.53 699.33 397.96 688.06 393.33 677.11C383.77 654.48 370.07 634.15 352.63 616.69C335.19 599.24 314.88 585.53 292.27 575.96C268.86 566.05 243.99 561.03 218.36 561.03C192.72 561.03 167.85 566.05 144.44 575.96C121.83 585.54 101.52 599.24 84.08 616.69C66.64 634.15 52.95 654.48 43.38 677.11C38.77 688.02 35.22 699.24 32.75 710.71H32.74L31.33 710.62C49.89 624.3 126.57 559.6 218.36 559.6C310.19 559.6 386.91 624.37 405.42 710.75Z" fill="white"/>
<path d="M286.38 632.66V795.79H150.33V632.66H286.38ZM287.8 631.24H148.91V797.21H287.8V631.24Z" fill="white"/>
<path d="M269.36 631.24H267.95C267.58 604.19 245.47 582.3 218.35 582.3C191.23 582.3 169.12 604.19 168.75 631.24H167.34C167.71 603.37 190.4 580.88 218.35 580.88C246.3 580.88 268.99 603.36 269.36 631.24Z" fill="white"/>
<path d="M290.63 744.72H287.8V746.14H290.63V744.72Z" fill="white"/>
<path d="M290.63 709.25H287.8V720.6H290.63V709.25Z" fill="white"/>
<path d="M290.63 683.72H287.8V685.14H290.63V683.72Z" fill="white"/>
<path d="M290.63 658.19H287.8V659.61H290.63V658.19Z" fill="white"/>
<path d="M148.91 744.72H146.08V746.14H148.91V744.72Z" fill="white"/>
<path d="M148.91 709.26H146.08V720.61H148.91V709.26Z" fill="white"/>
<path d="M148.91 683.72H146.08V685.14H148.91V683.72Z" fill="white"/>
<path d="M148.91 658.19H146.08V659.61H148.91V658.19Z" fill="white"/>
<path d="M255.19 751.1H253.77V761.74H255.19V751.1Z" fill="white"/>
<path d="M255.19 751.1H253.77C253.4 731.87 237.66 716.34 218.35 716.34C199.04 716.34 183.3 731.87 182.93 751.1H181.51C181.88 731.05 198.23 714.92 218.35 714.92C238.47 714.92 254.82 731.06 255.19 751.1Z" fill="white"/>
<path d="M182.94 751.1H181.52V761.74H182.94V751.1Z" fill="white"/>
<path d="M4.34998 558.18H0.0999756V559.6H4.34998V558.18Z" fill="white"/>
<path d="M33.64 1.42H32.22V86.6H33.64V1.42Z" fill="white"/>
<path d="M406.32 1.42H404.9V86.46H406.32V1.42Z" fill="white"/>
<path d="M406.32 86.46L404.91 86.36H404.9C402.43 97.88 398.86 109.15 394.23 120.1C384.67 142.73 370.97 163.06 353.53 180.52C336.09 197.97 315.78 211.68 293.17 221.25C269.76 231.16 244.89 236.18 219.26 236.18C193.62 236.18 168.75 231.16 145.34 221.25C122.73 211.67 102.42 197.97 84.98 180.52C67.54 163.06 53.85 142.73 44.28 120.1C39.67 109.19 36.12 97.97 33.65 86.5H33.64L32.23 86.59C50.79 172.91 127.47 237.61 219.26 237.61C311.08 237.6 387.81 172.84 406.32 86.46Z" fill="white"/>
<path d="M287.28 1.42V164.55H151.22V1.42H287.28ZM149.81 0V165.97H288.7V0H149.81Z" fill="white"/>
<path d="M270.26 165.97H268.85C268.48 193.02 246.37 214.91 219.25 214.91C192.13 214.91 170.02 193.02 169.65 165.97H168.24C168.61 193.84 191.3 216.33 219.25 216.33C247.2 216.33 269.89 193.84 270.26 165.97Z" fill="white"/>
<path d="M291.52 51.07H288.69V52.49H291.52V51.07Z" fill="white"/>
<path d="M291.52 76.6H288.69V87.95H291.52V76.6Z" fill="white"/>
<path d="M291.52 112.07H288.69V113.49H291.52V112.07Z" fill="white"/>
<path d="M291.52 137.6H288.69V139.02H291.52V137.6Z" fill="white"/>
<path d="M149.8 51.07H146.97V52.49H149.8V51.07Z" fill="white"/>
<path d="M149.8 76.6H146.97V87.95H149.8V76.6Z" fill="white"/>
<path d="M149.8 112.07H146.97V113.49H149.8V112.07Z" fill="white"/>
<path d="M149.8 137.6H146.97V139.02H149.8V137.6Z" fill="white"/>
<path d="M256.09 35.47H254.67V46.11H256.09V35.47Z" fill="white"/>
<path d="M256.09 46.1H254.67C254.3 65.33 238.56 80.86 219.25 80.86C199.94 80.86 184.2 65.33 183.83 46.1H182.41C182.78 66.15 199.13 82.28 219.25 82.28C239.37 82.28 255.72 66.15 256.09 46.1Z" fill="white"/>
<path d="M183.83 35.47H182.41V46.11H183.83V35.47Z" fill="white"/>
<path d="M5.24998 237.6H0.999977V239.02H5.24998V237.6Z" fill="white"/>
</svg>
