<svg width="433" height="401" viewBox="0 0 433 401" fill="none" xmlns="http://www.w3.org/2000/svg">
<path d="M5.6801 1.42H4.26011V399.5H5.6801V1.42Z" fill="white"/>
<path d="M432.25 1.42H430.83V399.5H432.25V1.42Z" fill="white"/>
<path d="M432.25 0H4.26011V1.42H432.25V0Z" fill="white"/>
<path d="M432.22 398.9H4.2247V400.31H432.22V398.9Z" fill="white"/>
<path fill-rule="evenodd" clip-rule="evenodd" d="M166.73 398.61C166.73 370.124 189.793 347.04 218.25 347.04C246.707 347.04 269.77 370.124 269.77 398.61H268.77C268.77 370.676 246.153 348.04 218.25 348.04C190.347 348.04 167.73 370.676 167.73 398.61H166.73ZM218.25 349.46C191.177 349.46 169.15 371.506 169.15 398.61H168.15C168.15 370.954 190.623 348.46 218.25 348.46C245.877 348.46 268.35 370.954 268.35 398.61H267.35C267.35 371.506 245.323 349.46 218.25 349.46Z" fill="white"/>
<path d="M33.5401 1.42H32.1201V86.6H33.5401V1.42Z" fill="white"/>
<path d="M406.22 1.42H404.8V86.46H406.22V1.42Z" fill="white"/>
<path d="M406.22 86.46L404.81 86.36H404.8C402.33 97.88 398.76 109.15 394.13 120.1C384.57 142.73 370.87 163.06 353.43 180.52C335.99 197.97 315.68 211.68 293.07 221.25C269.66 231.16 244.79 236.18 219.16 236.18C193.52 236.18 168.65 231.16 145.24 221.25C122.63 211.67 102.32 197.97 84.8801 180.52C67.4401 163.06 53.7501 142.73 44.1801 120.1C39.5701 109.19 36.0201 97.97 33.5501 86.5H33.5401L32.1301 86.59C50.6901 172.91 127.37 237.61 219.16 237.61C310.98 237.6 387.71 172.84 406.22 86.46Z" fill="white"/>
<path d="M287.18 1.42V164.55H151.12V1.42H287.18ZM149.71 0V165.97H288.6V0H149.71Z" fill="white"/>
<path d="M270.16 165.97H268.75C268.38 193.02 246.27 214.91 219.15 214.91C192.03 214.91 169.92 193.02 169.55 165.97H168.14C168.51 193.84 191.2 216.33 219.15 216.33C247.1 216.33 269.79 193.84 270.16 165.97Z" fill="white"/>
<path d="M291.42 51.07H288.59V52.49H291.42V51.07Z" fill="white"/>
<path d="M291.42 76.6H288.59V87.95H291.42V76.6Z" fill="white"/>
<path d="M291.42 112.07H288.59V113.49H291.42V112.07Z" fill="white"/>
<path d="M291.42 137.6H288.59V139.02H291.42V137.6Z" fill="white"/>
<path d="M149.7 51.07H146.87V52.49H149.7V51.07Z" fill="white"/>
<path d="M149.7 76.6H146.87V87.95H149.7V76.6Z" fill="white"/>
<path d="M149.7 112.07H146.87V113.49H149.7V112.07Z" fill="white"/>
<path d="M149.7 137.6H146.87V139.02H149.7V137.6Z" fill="white"/>
<path d="M255.99 35.47H254.57V46.11H255.99V35.47Z" fill="white"/>
<path d="M255.99 46.1H254.57C254.2 65.33 238.46 80.86 219.15 80.86C199.84 80.86 184.1 65.33 183.73 46.1H182.31C182.68 66.15 199.03 82.28 219.15 82.28C239.27 82.28 255.62 66.15 255.99 46.1Z" fill="white"/>
<path d="M183.73 35.47H182.31V46.11H183.73V35.47Z" fill="white"/>
<path d="M5.15015 237.6H0.900146V239.02H5.15015V237.6Z" fill="white"/>
</svg>
